PathFileType	4	(X/Y/Z)	C:\Users\Basilio\Documents\Thesis Gigler\squatting_fais\c3dfiles\073\SJ_pre3\markers_experimental.trc
DataRate	CameraRate	NumFrames	NumMarkers	Units	OrigDataRate	OrigDataStartFrame	OrigNumFrames
200.000000	200.000000	4	61	mm	200.000000	825	1320
Frame#	Time	FHD			LBHD			RBHD			C7			T10			CLAV			LSHO			LUUPA			LMUPA			LDUPA			LLEP			LMEP			LRAD			LUL			LRFIN			RSHO			RUPA1			RMUPA			RDUPA			RLEP			RMEP			RRAD			RUL			RUFIN			LASI			RASI			USACR			LSACR			RSACR			LTHI1			LTHI2			LTHI3			LTHI4			LLFC			LMFC			LTIB1			LTIB2			LTIB3			LTIB4			LLMAL			LMMAL			LHEE			LMT1			LMT2			LMT5			RTHI			RTHI2			RTHI3			RTHI4			RLFC			RMFC			RTIB1			RTIB2			RTIB3			RTIB4			RLMAL			RMMAL			RHEE			RMT1			RMT2			RMT5			
		X1	Y1	Z1	X2	Y2	Z2	X3	Y3	Z3	X4	Y4	Z4	X5	Y5	Z5	X6	Y6	Z6	X7	Y7	Z7	X8	Y8	Z8	X9	Y9	Z9	X10	Y10	Z10	X11	Y11	Z11	X12	Y12	Z12	X13	Y13	Z13	X14	Y14	Z14	X15	Y15	Z15	X16	Y16	Z16	X17	Y17	Z17	X18	Y18	Z18	X19	Y19	Z19	X20	Y20	Z20	X21	Y21	Z21	X22	Y22	Z22	X23	Y23	Z23	X24	Y24	Z24	X25	Y25	Z25	X26	Y26	Z26	X27	Y27	Z27	X28	Y28	Z28	X29	Y29	Z29	X30	Y30	Z30	X31	Y31	Z31	X32	Y32	Z32	X33	Y33	Z33	X34	Y34	Z34	X35	Y35	Z35	X36	Y36	Z36	X37	Y37	Z37	X38	Y38	Z38	X39	Y39	Z39	X40	Y40	Z40	X41	Y41	Z41	X42	Y42	Z42	X43	Y43	Z43	X44	Y44	Z44	X45	Y45	Z45	X46	Y46	Z46	X47	Y47	Z47	X48	Y48	Z48	X49	Y49	Z49	X50	Y50	Z50	X51	Y51	Z51	X52	Y52	Z52	X53	Y53	Z53	X54	Y54	Z54	X55	Y55	Z55	X56	Y56	Z56	X57	Y57	Z57	X58	Y58	Z58	X59	Y59	Z59	X60	Y60	Z60	X61	Y61	Z61	

826	4.125	-145.4821929931641	2017.265502929688	-983.031433105469	-270.8864746093751	1956.262817382813	-996.079772949219	-280.6129150390626	1938.643188476563	-862.014831542969	-302.9281311035157	1861.66943359375	-929.029479980469	-381.4716796875001	1529.037719726563	-938.0394287109377	-174.40087890625	1782.766357421875	-931.2466430664065	-210.4684295654297	1815.994506835938	-1100.549560546875	-301.4242553710938	1748.480834960938	-1215.667724609375	-287.6060485839844	1700.853759765625	-1225.638061523438	-337.8711547851563	1707.362915039063	-1259.365966796875	-387.5993957519532	1626.3525390625	-1310.993896484375	-460.5265502929689	1624.162109375	-1266.266357421875	-340.9713745117188	1409.439086914063	-1149.997924804688	-314.6044311523438	1389.147094726563	-1215.3583984375	-293.1358032226563	1383.719970703125	-1108.046752929688	-186.3984680175782	1811.023803710938	-765.4675292968751	-289.1408691406251	1747.737426757813	-631.2113037109376	-277.6769714355469	1700.962768554688	-619.6309814453126	-329.6768188476563	1708.086547851563	-590.0150146484376	-365.7758178710938	1631.993896484375	-544.3369140625001	-437.0437927246095	1628.607421875	-606.0093383789064	-359.3924255371094	1406.420288085938	-702.0179443359376	-322.2546386718751	1381.344482421875	-640.8453369140626	-296.1566772460938	1381.962158203125	-744.3517456054689	-230.4200439453126	1360.320190429688	-1053.175903320313	-232.4207000732422	1363.873168945313	-813.5292968750002	-402.0074768066407	1426.822509765625	-933.046325683594	-414.4314270019532	1398.62158203125	-960.5476684570315	-420.374237060547	1398.113525390625	-904.6937255859377	-326.8071899414063	1036.809204101563	-1143.464111328125	-298.3236083984376	957.1355590820315	-1144.208618164063	-251.6426086425782	954.4221191406252	-1123.790771484375	-330.1259460449219	907.435974121094	-1136.559936523438	-337.5062561035157	847.669616699219	-1144.714477539063	-307.8133239746094	823.4182128906252	-1011.67724609375	-284.9313354492188	644.4962158203126	-1134.440673828125	-353.5101318359376	611.1512451171876	-1174.157958984375	-310.6107788085938	601.5261230468751	-1167.388671875	-303.4662170410157	519.1358032226564	-1145.172607421875	-373.9220275878907	405.7794799804689	-1168.10400390625	-344.0024414062501	420.6968078613282	-1087.712524414063	-432.5180053710939	408.307586669922	-1118.484252929688	-244.5695343017579	284.1905212402344	-1098.017456054688	-249.3316955566407	279.6764221191407	-1136.612182617188	-298.3785400390626	272.7005004882813	-1181.254150390625	-347.9958190917969	1126.26123046875	-719.9387817382814	-315.8302307128907	1068.6875	-712.6853027343751	-282.4822692871094	1068.196411132813	-714.6858520507814	-347.1348266601563	991.838806152344	-727.3872070312501	-339.2738952636719	840.1411743164065	-726.1207885742189	-317.1248168945313	814.7766723632815	-852.7664184570315	-285.4818725585938	669.1220703125001	-784.7698974609377	-317.8815917968751	595.9801025390626	-712.7991943359376	-286.2274475097657	590.0018310546876	-748.7270507812501	-298.5422973632813	540.3271484375001	-776.118103027344	-360.0579528808594	409.7962951660157	-721.8569946289064	-330.3574829101563	429.2738342285157	-804.6252441406252	-421.8736267089845	415.3432922363282	-787.5332031250002	-233.0508270263672	293.2602844238282	-785.2437133789065	-239.9402618408204	283.2104187011719	-744.9550170898439	-295.8033752441407	274.6945800781251	-709.1843872070314	
827	4.13	-144.5621185302735	2015.90185546875	-983.5415039062502	-270.9507751464844	1955.178588867188	-996.3223266601565	-280.5571289062501	1937.475341796875	-862.118347167969	-303.0964355468751	1860.510131835938	-929.421569824219	-382.0928344726563	1528.5224609375	-938.7281494140627	-174.4336242675782	1781.532958984375	-931.2277832031252	-210.3990936279297	1814.539306640625	-1100.826416015625	-301.0733947753907	1747.174072265625	-1216.127197265625	-287.1741638183594	1699.4951171875	-1226.099731445313	-337.3941650390626	1706.383544921875	-1259.899169921875	-386.7707824707032	1624.745483398438	-1311.612182617188	-459.8811645507814	1622.693359375	-1267.330688476563	-340.9169311523438	1408.24072265625	-1150.245483398438	-314.2856140136719	1387.789916992188	-1215.367553710938	-293.3592834472657	1382.578979492188	-1107.932250976563	-186.8054809570313	1809.733764648438	-765.6702880859376	-289.5863342285157	1746.52294921875	-631.2033081054689	-278.2245178222657	1699.905883789063	-619.7918701171876	-330.2408142089844	1706.989501953125	-590.2197265625001	-366.6336059570313	1631.185302734375	-544.5198364257814	-437.9533691406251	1627.837890625	-606.2686767578126	-360.3627014160157	1405.45166015625	-701.8181152343751	-323.4526977539063	1380.313842773438	-640.5116577148439	-297.2524108886719	1380.879638671875	-744.0102539062501	-230.9807586669922	1359.205322265625	-1052.518798828125	-233.3187408447266	1363.049194335938	-813.0963134765627	-402.4446411132814	1426.838623046875	-933.4062500000002	-414.4683227539064	1398.496337890625	-960.877868652344	-420.4149475097657	1398.116455078125	-904.938903808594	-326.7000427246094	1035.483520507813	-1144.023681640625	-297.9562988281251	956.0357666015627	-1144.704711914063	-251.5177307128907	953.4147949218752	-1124.119995117188	-329.5310668945313	906.2695922851565	-1137.033325195313	-336.4104919433594	846.5693359375002	-1145.169799804688	-307.4806213378907	822.3061523437502	-1011.920227050781	-284.5329589843751	643.2503662109376	-1134.817626953125	-352.7405700683594	610.2891235351564	-1175.041259765625	-309.8715209960938	600.4815063476564	-1168.0458984375	-303.4335327148438	517.9798583984376	-1145.947631835938	-373.8612365722657	404.8795166015626	-1169.447509765625	-344.4348754882813	419.5192871093751	-1088.81591796875	-432.8744506835939	406.7769775390626	-1120.184936523438	-244.2926635742188	283.5903320312501	-1099.4658203125	-248.7752380371094	279.4143371582032	-1137.920654296875	-297.4913024902344	272.4342956542969	-1182.977905273438	-347.5717163085938	1125.072387695313	-719.8239135742189	-315.1931152343751	1067.574096679688	-712.7248535156251	-281.8074951171876	1067.26171875	-714.6529541015626	-346.0712280273438	990.718688964844	-727.2338867187501	-336.7568054199219	839.2100830078127	-725.8856201171876	-316.4729309082032	813.549987792969	-852.8372192382815	-284.1828613281251	667.8855590820314	-785.5217285156252	-315.1757202148438	594.8577880859376	-712.8574218750001	-284.3760681152344	588.7752685546876	-749.7415161132814	-297.3493041992188	539.1823730468751	-776.8480224609377	-358.0718688964844	408.8899841308595	-721.3238525390626	-329.9388427734376	428.2423095703126	-804.6529541015627	-420.9833984375001	414.382049560547	-785.7745361328127	-232.428695678711	292.0479431152344	-786.9085693359377	-238.6370086669922	282.1007080078126	-746.4420776367189	-293.8439025878907	273.7672119140626	-709.6336059570314	
828	4.135	-144.5793914794922	2014.319702148438	-983.7444458007815	-270.9994506835938	1953.803466796875	-996.6043701171877	-280.3494567871094	1936.313354492188	-862.3970947265627	-303.2146606445313	1859.11962890625	-929.8946533203127	-382.7479248046876	1527.807983398438	-939.284606933594	-174.6764221191407	1779.87548828125	-931.4878540039065	-210.3513793945313	1812.877563476563	-1100.955932617188	-300.5724487304688	1745.621704101563	-1216.384521484375	-286.6941223144532	1697.960571289063	-1226.578125	-336.4502563476563	1704.388671875	-1260.581909179688	-386.1027832031251	1623.048583984375	-1312.377563476563	-459.3193664550782	1621.006713867188	-1268.30810546875	-341.1093444824219	1406.683959960938	-1150.320190429688	-313.9770507812501	1386.18408203125	-1215.347290039063	-293.6633300781251	1381.16943359375	-1107.898803710938	-187.262435913086	1808.25439453125	-765.9882202148439	-289.9903259277344	1745.2529296875	-631.1398925781251	-278.8317260742188	1698.325073242188	-619.8945922851564	-330.7102966308594	1705.760864257813	-590.2735595703126	-367.4396972656251	1630.127197265625	-544.7440185546876	-438.6904296875001	1626.912475585938	-606.4521484375001	-361.7091674804688	1404.292602539063	-701.6480712890626	-324.7767639160157	1379.0654296875	-640.2761840820314	-298.2642822265626	1379.513305664063	-743.6561889648439	-231.6819000244141	1357.8212890625	-1051.854614257813	-234.3272552490235	1361.83837890625	-812.537292480469	-402.958465576172	1426.512817382813	-933.7481079101565	-414.5931701660157	1398.048217773438	-961.169128417969	-420.6046752929689	1397.785400390625	-905.2222900390627	-326.5450744628907	1034.05615234375	-1144.628662109375	-297.5661926269532	954.6658325195315	-1145.186889648438	-251.0951232910157	952.1918945312502	-1124.341796875	-328.9031372070313	904.6355590820315	-1137.442749023438	-335.4303283691407	845.160583496094	-1145.62255859375	-307.0207519531251	820.7720947265627	-1012.209594726563	-284.0566406250001	641.8122558593751	-1135.041625976563	-352.2562561035157	609.1769409179689	-1175.82275390625	-309.5205078125001	599.0928344726564	-1168.463623046875	-303.4805297851563	516.6323242187501	-1146.677612304688	-374.1554870605469	403.7380981445314	-1170.753051757813	-345.0469055175782	418.0380859375001	-1089.787841796875	-433.3448791503907	405.0157470703126	-1121.802612304688	-244.5123748779297	282.6666259765626	-1101.02294921875	-248.4237213134766	279.0259094238282	-1139.908447265625	-296.6721496582032	272.1540222167969	-1185.02490234375	-347.0322265625001	1123.57470703125	-719.6876831054689	-314.4444274902344	1066.236450195313	-712.6627197265626	-281.0586547851563	1066.176879882813	-714.7567138671876	-345.0208740234376	989.3114013671877	-727.1093750000001	-334.1874084472657	837.9326171875002	-725.3621215820314	-315.7393493652344	811.9562988281252	-852.746765136719	-282.8033752441407	666.5610961914064	-786.245788574219	-312.6188354492188	593.4752197265626	-712.9920654296876	-282.5950012207032	587.3854370117189	-750.4739379882814	-296.1919250488282	537.7666015625001	-777.302917480469	-356.0873718261719	407.6910400390626	-720.6984252929689	-329.5790100097657	426.9572753906251	-804.597351074219	-420.2734375000001	413.3064880371095	-784.1660766601565	-231.8865051269532	290.6776428222657	-788.0882568359377	-237.4640045166016	280.8549499511719	-747.5297241210939	-292.0978393554688	272.6043090820313	-709.8455810546876	
829	4.14	-144.7079162597657	2012.384155273438	-984.079040527344	-271.1766052246094	1952.270874023438	-996.792663574219	-280.3296813964844	1934.625366210938	-862.562927246094	-303.3706054687501	1857.3828125	-930.1641845703127	-383.4291076660157	1527.005615234375	-939.8992919921877	-174.9043426513672	1777.970703125	-931.702087402344	-210.2419891357422	1811.072631835938	-1101.19873046875	-299.9920654296876	1743.809448242188	-1216.830444335938	-285.8807983398438	1696.08544921875	-1227.03515625	-336.0083618164063	1702.948852539063	-1260.9619140625	-385.2880249023439	1621.020874023438	-1313.0771484375	-458.7589721679689	1619.10205078125	-1269.27734375	-341.2720031738282	1405.077514648438	-1150.596557617188	-313.9468994140626	1384.284057617188	-1215.415161132813	-293.7805175781251	1379.605712890625	-1107.769653320313	-187.5611267089844	1806.369018554688	-765.9269409179689	-290.3415527343751	1743.600463867188	-631.1891479492189	-279.4320678710938	1696.738037109375	-620.2339477539064	-331.1939086914063	1704.158935546875	-590.3106689453126	-368.3276672363282	1628.642700195313	-544.8684082031251	-439.6504516601564	1625.880737304688	-606.6282958984376	-362.6841125488282	1402.9326171875	-701.6580810546876	-326.1573486328126	1377.621826171875	-640.1198120117189	-299.3395385742188	1378.047119140625	-743.3636474609376	-232.3595581054688	1356.011352539063	-1051.260131835938	-235.3184814453126	1360.552978515625	-812.194763183594	-403.4531860351564	1425.951171875	-934.0166625976565	-415.1842041015626	1397.32080078125	-961.4284667968752	-421.2609863281251	1397.185546875	-905.6013793945315	-325.9221191406251	1032.225219726563	-1145.1376953125	-296.7755126953126	952.8372802734377	-1145.820068359375	-250.2645721435547	950.7769775390627	-1124.509765625	-328.2158203125001	902.9273681640627	-1137.828369140625	-334.5406494140626	843.6245727539065	-1146.089477539063	-306.4322814941407	819.2429199218752	-1012.509460449219	-283.7518920898438	639.9607543945314	-1135.346923828125	-351.7999267578126	607.7543945312501	-1176.760498046875	-309.1528625488282	597.5655517578126	-1168.954467773438	-303.6211853027344	515.0354003906251	-1147.359130859375	-374.7598266601563	402.5385742187501	-1172.04833984375	-345.8821411132813	416.3786621093751	-1090.851928710938	-434.1600952148439	402.9837951660157	-1123.40234375	-244.459945678711	281.4367065429688	-1102.936401367188	-248.4000701904297	278.1698303222657	-1141.33154296875	-296.4702453613282	271.6059875488282	-1187.179931640625	-346.4116210937501	1121.999755859375	-719.5737304687501	-313.5261535644532	1064.924560546875	-712.6177368164064	-280.2072143554688	1064.7138671875	-714.7594604492189	-343.8247070312501	987.6845703125002	-727.0852050781251	-331.8735961914063	836.5051879882815	-725.0874633789064	-314.6406555175782	810.3395996093752	-852.594909667969	-281.3803710937501	664.9001464843751	-786.914733886719	-310.3061218261719	592.0234375000001	-713.0695190429689	-280.8846740722657	585.7152709960939	-751.0284423828126	-295.0582275390626	536.1588134765626	-777.728942871094	-354.3907165527344	406.2713928222657	-720.1325073242189	-329.0348510742188	425.4469299316407	-804.4259033203127	-419.5859375000001	411.900115966797	-782.6209106445315	-231.4360961914063	288.9417724609376	-789.0408325195315	-236.4766082763672	279.2921447753907	-748.2912597656251	-290.5133361816407	271.4609680175782	-709.6605224609376	
